<?xml version="1.0" encoding="UTF-8"?>
<svg xmlns="http://www.w3.org/2000/svg" xmlns:xlink="http://www.w3.org/1999/xlink" width="259pt" height="138pt" viewBox="0 0 259 138" version="1.1">
<defs>
<filter id="alpha" filterUnits="objectBoundingBox" x="0%" y="0%" width="100%" height="100%">
  <feColorMatrix type="matrix" in="SourceGraphic" values="0 0 0 0 1 0 0 0 0 1 0 0 0 0 1 0 0 0 1 0"/>
</filter>
<mask id="mask0">
  <g filter="url(#alpha)">
<rect x="0" y="0" width="259" height="138" style="fill:rgb(0%,0%,0%);fill-opacity:0.101961;stroke:none;"/>
  </g>
</mask>
<clipPath id="clip1">
  <rect width="259" height="138"/>
</clipPath>
<g id="surface6" clip-path="url(#clip1)">
<path style=" stroke:none;fill-rule:nonzero;fill:rgb(42.352941%,38.823529%,100%);fill-opacity:1;" d="M 239.214844 109.15625 C 238.925781 109.78125 238.640625 110.394531 238.351562 111 C 237.90625 111.941406 237.460938 112.867188 237.027344 113.769531 C 236.832031 114.171875 236.636719 114.566406 236.449219 114.957031 C 234.308594 119.335938 232.3125 123.207031 230.613281 126.390625 C 227.476562 132.265625 221.390625 135.960938 214.738281 136.03125 L 177.007812 136.441406 L 176.609375 136.441406 L 173.375 136.476562 L 170.609375 136.503906 L 162.125 136.597656 L 161.78125 136.597656 L 157.460938 136.644531 L 157.332031 136.644531 L 130.710938 136.933594 L 106.945312 137.183594 L 104.183594 137.210938 L 87.015625 137.398438 L 86.996094 137.398438 L 75.863281 137.519531 L 75.742188 137.519531 L 40.535156 137.898438 L 30.003906 138.015625 C 27.757812 138.039062 25.519531 137.71875 23.371094 137.0625 C 19.628906 135.933594 16.265625 133.800781 13.644531 130.898438 C 9.121094 125.910156 5.824219 120.085938 3.609375 113.769531 C 3.289062 112.859375 2.992188 111.933594 2.714844 111 C -4.949219 85.058594 4.394531 51.585938 21.210938 29.1875 C 21.917969 28.25 22.632812 27.335938 23.363281 26.445312 L 23.378906 26.425781 C 28.550781 20.070312 34.351562 14.757812 40.53125 10.984375 C 51.476562 4.28125 63.605469 2.390625 75.535156 8.019531 C 85.628906 12.78125 95.054688 15.019531 104.191406 15.628906 C 105.113281 15.6875 106.035156 15.734375 106.953125 15.761719 C 127.910156 16.421875 147.550781 8.859375 170.613281 3.980469 C 171.53125 3.785156 172.453125 3.59375 173.378906 3.414062 C 189.832031 0.132812 208.085938 -1.59375 229.789062 2.039062 C 232.046875 2.410156 234.269531 2.941406 236.449219 3.632812 C 237.40625 3.941406 238.328125 4.273438 239.214844 4.628906 C 249.574219 8.851562 255.226562 16.648438 257.625 26.417969 C 257.855469 27.324219 258.050781 28.246094 258.214844 29.183594 C 262.472656 52.683594 250.007812 86.019531 239.214844 109.15625 Z M 239.214844 109.15625 "/>
</g>
<mask id="mask1">
  <g filter="url(#alpha)">
<rect x="0" y="0" width="259" height="138" style="fill:rgb(0%,0%,0%);fill-opacity:0.101961;stroke:none;"/>
  </g>
</mask>
<clipPath id="clip2">
  <rect width="259" height="138"/>
</clipPath>
<g id="surface9" clip-path="url(#clip2)">
<path style=" stroke:none;fill-rule:nonzero;fill:rgb(42.352941%,38.823529%,100%);fill-opacity:1;" d="M 40.53125 10.984375 L 40.53125 137.929688 L 29.996094 138.042969 C 27.75 138.066406 25.511719 137.746094 23.363281 137.089844 L 23.363281 26.425781 L 23.378906 26.425781 C 28.550781 20.0625 34.351562 14.75 40.53125 10.984375 Z M 40.53125 10.984375 "/>
<path style=" stroke:none;fill-rule:nonzero;fill:rgb(42.352941%,38.823529%,100%);fill-opacity:1;" d="M 258.230469 29.1875 L 21.210938 29.1875 C 21.917969 28.25 22.632812 27.335938 23.363281 26.445312 L 23.363281 26.425781 L 257.640625 26.425781 C 257.867188 27.328125 258.0625 28.25 258.230469 29.1875 Z M 258.230469 29.1875 "/>
<path style=" stroke:none;fill-rule:nonzero;fill:rgb(42.352941%,38.823529%,100%);fill-opacity:1;" d="M 239.214844 4.632812 L 239.214844 110.996094 L 238.351562 110.996094 C 237.90625 111.9375 237.460938 112.863281 237.027344 113.769531 C 236.832031 114.167969 236.636719 114.5625 236.449219 114.957031 L 236.449219 3.625 C 237.40625 3.9375 238.328125 4.269531 239.214844 4.632812 Z M 239.214844 4.632812 "/>
<path style=" stroke:none;fill-rule:nonzero;fill:rgb(42.352941%,38.823529%,100%);fill-opacity:1;" d="M 173.378906 3.40625 L 173.378906 136.484375 L 170.613281 136.515625 L 170.613281 3.972656 C 171.53125 3.777344 172.453125 3.585938 173.378906 3.40625 Z M 173.378906 3.40625 "/>
<path style=" stroke:none;fill-rule:nonzero;fill:rgb(42.352941%,38.823529%,100%);fill-opacity:1;" d="M 106.953125 15.753906 L 106.953125 137.207031 L 104.191406 137.238281 L 104.191406 15.621094 C 105.113281 15.679688 106.035156 15.714844 106.953125 15.753906 Z M 106.953125 15.753906 "/>
<path style=" stroke:none;fill-rule:nonzero;fill:rgb(42.352941%,38.823529%,100%);fill-opacity:1;" d="M 238.351562 111 C 237.90625 111.941406 237.460938 112.867188 237.027344 113.769531 L 3.609375 113.769531 C 3.289062 112.859375 2.992188 111.933594 2.714844 111 Z M 238.351562 111 "/>
</g>
<mask id="mask2">
  <g filter="url(#alpha)">
<rect x="0" y="0" width="259" height="138" style="fill:rgb(0%,0%,0%);fill-opacity:0.2;stroke:none;"/>
  </g>
</mask>
<clipPath id="clip3">
  <rect width="259" height="138"/>
</clipPath>
<g id="surface12" clip-path="url(#clip3)">
<path style=" stroke:none;fill-rule:nonzero;fill:rgb(0%,0%,0%);fill-opacity:1;" d="M 214.738281 132.929688 L 214.738281 136.167969 L 176.941406 136.519531 L 176.539062 136.523438 L 162.171875 136.65625 L 161.828125 136.664062 L 157.460938 136.699219 L 157.332031 136.699219 L 130.714844 136.945312 L 87.023438 137.351562 L 86.988281 137.351562 L 75.878906 137.457031 L 75.757812 137.460938 L 26.398438 137.914062 L 26.398438 134.175781 L 38.003906 127.203125 L 61.292969 127.007812 L 61.789062 127.003906 L 61.953125 127.003906 L 62.449219 126.996094 L 73.632812 126.902344 L 74.132812 126.898438 L 74.292969 126.898438 L 74.789062 126.894531 L 78.375 126.867188 L 78.46875 126.863281 L 87.3125 126.789062 L 87.386719 126.789062 L 156.402344 126.207031 L 158.09375 126.191406 L 158.261719 126.191406 L 159.550781 126.179688 L 168.917969 126.101562 L 169.414062 126.09375 L 169.875 126.089844 L 170.113281 126.089844 L 173.027344 126.066406 L 173.605469 126.0625 L 174.378906 126.054688 L 176.804688 126.035156 L 180.652344 126 L 181.152344 125.996094 L 182.015625 125.992188 L 182.179688 125.992188 L 200.765625 125.832031 Z M 214.738281 132.929688 "/>
</g>
<mask id="mask3">
  <g filter="url(#alpha)">
<rect x="0" y="0" width="259" height="138" style="fill:rgb(0%,0%,0%);fill-opacity:0.101961;stroke:none;"/>
  </g>
</mask>
<clipPath id="clip4">
  <rect width="259" height="138"/>
</clipPath>
<g id="surface15" clip-path="url(#clip4)">
<path style=" stroke:none;fill-rule:nonzero;fill:rgb(0%,0%,0%);fill-opacity:1;" d="M 73.667969 120.476562 L 73.667969 126.578125 C 73.667969 127.167969 73.332031 127.707031 72.796875 127.957031 C 72.605469 128.054688 72.390625 128.105469 72.175781 128.109375 L 63.492188 128.292969 C 63.261719 128.296875 63.03125 128.25 62.820312 128.152344 C 62.28125 127.902344 61.933594 127.359375 61.933594 126.761719 L 61.933594 120.476562 Z M 73.667969 120.476562 "/>
</g>
<mask id="mask4">
  <g filter="url(#alpha)">
<rect x="0" y="0" width="259" height="138" style="fill:rgb(0%,0%,0%);fill-opacity:0.101961;stroke:none;"/>
  </g>
</mask>
<clipPath id="clip5">
  <rect width="259" height="138"/>
</clipPath>
<g id="surface18" clip-path="url(#clip5)">
<path style=" stroke:none;fill-rule:nonzero;fill:rgb(0%,0%,0%);fill-opacity:1;" d="M 169.414062 120.476562 L 181.152344 120.476562 L 181.152344 128.324219 L 169.414062 128.324219 Z M 169.414062 120.476562 "/>
</g>
<mask id="mask5">
  <g filter="url(#alpha)">
<rect x="0" y="0" width="259" height="138" style="fill:rgb(0%,0%,0%);fill-opacity:0.101961;stroke:none;"/>
  </g>
</mask>
<clipPath id="clip6">
  <rect width="259" height="138"/>
</clipPath>
<g id="surface21" clip-path="url(#clip6)">
<path style=" stroke:none;fill-rule:nonzero;fill:rgb(0%,0%,0%);fill-opacity:1;" d="M 57.375 66.214844 L 57.375 67.640625 L 52.644531 67.519531 L 52.644531 66.214844 Z M 57.375 66.214844 "/>
</g>
<mask id="mask6">
  <g filter="url(#alpha)">
<rect x="0" y="0" width="259" height="138" style="fill:rgb(0%,0%,0%);fill-opacity:0.101961;stroke:none;"/>
  </g>
</mask>
<clipPath id="clip7">
  <rect width="259" height="138"/>
</clipPath>
<g id="surface24" clip-path="url(#clip7)">
<path style=" stroke:none;fill-rule:nonzero;fill:rgb(0%,0%,0%);fill-opacity:1;" d="M 184.589844 65.46875 L 184.589844 66.410156 L 179.863281 66.507812 L 179.863281 65.46875 Z M 184.589844 65.46875 "/>
</g>
<mask id="mask7">
  <g filter="url(#alpha)">
<rect x="0" y="0" width="259" height="138" style="fill:rgb(0%,0%,0%);fill-opacity:0.101961;stroke:none;"/>
  </g>
</mask>
<clipPath id="clip8">
  <rect width="259" height="138"/>
</clipPath>
<g id="surface27" clip-path="url(#clip8)">
<path style=" stroke:none;fill-rule:nonzero;fill:rgb(0%,0%,0%);fill-opacity:1;" d="M 205.921875 64.671875 C 205.933594 64.878906 205.863281 65.085938 205.722656 65.238281 C 205.582031 65.394531 205.382812 65.484375 205.175781 65.488281 L 200.765625 20.945312 L 201.261719 20.921875 C 201.675781 20.898438 202.027344 21.207031 202.066406 21.621094 Z M 205.921875 64.671875 "/>
</g>
<mask id="mask8">
  <g filter="url(#alpha)">
<rect x="0" y="0" width="259" height="138" style="fill:rgb(0%,0%,0%);fill-opacity:0.101961;stroke:none;"/>
  </g>
</mask>
<clipPath id="clip9">
  <rect width="259" height="138"/>
</clipPath>
<g id="surface30" clip-path="url(#clip9)">
<path style=" stroke:none;fill-rule:nonzero;fill:rgb(0%,0%,0%);fill-opacity:1;" d="M 41.855469 21.695312 L 36.238281 66.601562 L 35.375 66.578125 C 35.074219 66.570312 34.785156 66.433594 34.589844 66.203125 C 34.390625 65.972656 34.300781 65.667969 34.339844 65.367188 L 40.71875 22.601562 C 40.800781 22.046875 41.296875 21.652344 41.855469 21.695312 Z M 41.855469 21.695312 "/>
</g>
<mask id="mask9">
  <g filter="url(#alpha)">
<rect x="0" y="0" width="259" height="138" style="fill:rgb(0%,0%,0%);fill-opacity:0.101961;stroke:none;"/>
  </g>
</mask>
<clipPath id="clip10">
  <rect width="259" height="138"/>
</clipPath>
<g id="surface33" clip-path="url(#clip10)">
<path style=" stroke:none;fill-rule:nonzero;fill:rgb(0%,0%,0%);fill-opacity:1;" d="M 52.644531 76.324219 L 57.375 76.324219 L 57.375 80.582031 L 52.644531 80.582031 Z M 52.644531 76.324219 "/>
</g>
<mask id="mask10">
  <g filter="url(#alpha)">
<rect x="0" y="0" width="259" height="138" style="fill:rgb(0%,0%,0%);fill-opacity:0.101961;stroke:none;"/>
  </g>
</mask>
<clipPath id="clip11">
  <rect width="259" height="138"/>
</clipPath>
<g id="surface36" clip-path="url(#clip11)">
<path style=" stroke:none;fill-rule:nonzero;fill:rgb(0%,0%,0%);fill-opacity:1;" d="M 74.167969 120.476562 L 74.167969 121.714844 L 62.429688 122.027344 L 62.429688 120.476562 Z M 74.167969 120.476562 "/>
</g>
<mask id="mask11">
  <g filter="url(#alpha)">
<rect x="0" y="0" width="259" height="138" style="fill:rgb(0%,0%,0%);fill-opacity:0.101961;stroke:none;"/>
  </g>
</mask>
<clipPath id="clip12">
  <rect width="259" height="138"/>
</clipPath>
<g id="surface39" clip-path="url(#clip12)">
<path style=" stroke:none;fill-rule:nonzero;fill:rgb(0%,0%,0%);fill-opacity:1;" d="M 46.238281 76.824219 L 46.238281 121.960938 L 46.226562 121.960938 C 45.6875 121.953125 45.25 121.515625 45.242188 120.976562 L 45.242188 77.808594 C 45.25 77.265625 45.6875 76.832031 46.226562 76.824219 Z M 46.238281 76.824219 "/>
</g>
<mask id="mask12">
  <g filter="url(#alpha)">
<rect x="0" y="0" width="259" height="138" style="fill:rgb(0%,0%,0%);fill-opacity:0.101961;stroke:none;"/>
  </g>
</mask>
<clipPath id="clip13">
  <rect width="259" height="138"/>
</clipPath>
<g id="surface42" clip-path="url(#clip13)">
<path style=" stroke:none;fill-rule:nonzero;fill:rgb(0%,0%,0%);fill-opacity:1;" d="M 179.863281 76.324219 L 184.589844 76.324219 L 184.589844 80.664062 L 179.863281 80.664062 Z M 179.863281 76.324219 "/>
</g>
<mask id="mask13">
  <g filter="url(#alpha)">
<rect x="0" y="0" width="259" height="138" style="fill:rgb(0%,0%,0%);fill-opacity:0.101961;stroke:none;"/>
  </g>
</mask>
<clipPath id="clip14">
  <rect width="259" height="138"/>
</clipPath>
<g id="surface45" clip-path="url(#clip14)">
<path style=" stroke:none;fill-rule:nonzero;fill:rgb(0%,0%,0%);fill-opacity:1;" d="M 180.652344 120.476562 L 180.652344 122.074219 L 168.917969 121.757812 L 168.917969 120.476562 Z M 180.652344 120.476562 "/>
</g>
<mask id="mask14">
  <g filter="url(#alpha)">
<rect x="0" y="0" width="259" height="138" style="fill:rgb(0%,0%,0%);fill-opacity:0.101961;stroke:none;"/>
  </g>
</mask>
<clipPath id="clip15">
  <rect width="259" height="138"/>
</clipPath>
<g id="surface48" clip-path="url(#clip15)">
<path style=" stroke:none;fill-rule:nonzero;fill:rgb(0%,0%,0%);fill-opacity:1;" d="M 196.140625 77.808594 L 196.140625 120.976562 C 196.132812 121.523438 195.691406 121.960938 195.144531 121.960938 L 195.144531 76.824219 C 195.691406 76.824219 196.132812 77.261719 196.140625 77.808594 Z M 196.140625 77.808594 "/>
</g>
<mask id="mask15">
  <g filter="url(#alpha)">
<rect x="0" y="0" width="259" height="138" style="fill:rgb(0%,0%,0%);fill-opacity:0.101961;stroke:none;"/>
  </g>
</mask>
<clipPath id="clip16">
  <rect width="259" height="138"/>
</clipPath>
<g id="surface51" clip-path="url(#clip16)">
<path style=" stroke:none;fill-rule:nonzero;fill:rgb(0%,0%,0%);fill-opacity:1;" d="M 214.738281 132.929688 L 214.738281 136.167969 L 176.941406 136.519531 L 176.539062 136.523438 L 162.171875 136.65625 L 161.828125 136.664062 L 157.460938 136.699219 L 157.332031 136.699219 L 130.714844 136.945312 L 87.023438 137.351562 L 86.988281 137.351562 L 75.878906 137.457031 L 75.757812 137.460938 L 26.398438 137.914062 L 26.398438 134.175781 L 76.78125 133.84375 L 76.902344 133.84375 L 87.101562 133.773438 L 87.148438 133.773438 L 157.578125 133.308594 L 157.808594 133.308594 L 159 133.300781 L 159.363281 133.300781 L 177.894531 133.175781 L 178.992188 133.171875 L 179.234375 133.167969 Z M 214.738281 132.929688 "/>
</g>
<linearGradient id="linear0" gradientUnits="userSpaceOnUse" x1="597.75" y1="725.44" x2="597.75" y2="347.69" gradientTransform="matrix(0.248799,0,0,0.249097,-19.739731,-43.071444)">
<stop offset="0" style="stop-color:rgb(50.196078%,50.196078%,50.196078%);stop-opacity:0.25098;"/>
<stop offset="0.54" style="stop-color:rgb(50.196078%,50.196078%,50.196078%);stop-opacity:0.121569;"/>
<stop offset="1" style="stop-color:rgb(50.196078%,50.196078%,50.196078%);stop-opacity:0.101961;"/>
</linearGradient>
<mask id="mask16">
  <g filter="url(#alpha)">
<rect x="0" y="0" width="259" height="138" style="fill:rgb(0%,0%,0%);fill-opacity:0.101961;stroke:none;"/>
  </g>
</mask>
<clipPath id="clip17">
  <rect width="259" height="138"/>
</clipPath>
<g id="surface54" clip-path="url(#clip17)">
<path style=" stroke:none;fill-rule:nonzero;fill:rgb(0%,0%,0%);fill-opacity:1;" d="M 134.003906 93.949219 C 134.003906 93.949219 109.246094 96.9375 111.613281 93.949219 C 112.46875 92.867188 112.703125 89.664062 112.65625 86.015625 C 116.429688 84.402344 121.230469 85.605469 121.230469 85.605469 C 126.289062 84.597656 129.53125 84.792969 131.601562 85.5 C 132.257812 88.355469 133.058594 91.175781 134.003906 93.949219 Z M 134.003906 93.949219 "/>
</g>
<mask id="mask17">
  <g filter="url(#alpha)">
<rect x="0" y="0" width="259" height="138" style="fill:rgb(0%,0%,0%);fill-opacity:0.101961;stroke:none;"/>
  </g>
</mask>
<clipPath id="clip18">
  <rect width="259" height="138"/>
</clipPath>
<g id="surface57" clip-path="url(#clip18)">
<path style=" stroke:none;fill-rule:nonzero;fill:rgb(0%,0%,0%);fill-opacity:1;" d="M 91.085938 108.273438 C 91.085938 108.273438 105.265625 115.621094 110.367188 114.75 Z M 91.085938 108.273438 "/>
</g>
<mask id="mask18">
  <g filter="url(#alpha)">
<rect x="0" y="0" width="259" height="138" style="fill:rgb(0%,0%,0%);fill-opacity:0.101961;stroke:none;"/>
  </g>
</mask>
<clipPath id="clip19">
  <rect width="259" height="138"/>
</clipPath>
<g id="surface60" clip-path="url(#clip19)">
<path style=" stroke:none;fill-rule:nonzero;fill:rgb(0%,0%,0%);fill-opacity:1;" d="M 119.945312 105.285156 C 119.945312 105.285156 133.753906 109.765625 138.355469 110.390625 C 142.960938 111.011719 119.945312 105.285156 119.945312 105.285156 Z M 119.945312 105.285156 "/>
</g>
<mask id="mask19">
  <g filter="url(#alpha)">
<rect x="0" y="0" width="259" height="138" style="fill:rgb(0%,0%,0%);fill-opacity:0.101961;stroke:none;"/>
  </g>
</mask>
<clipPath id="clip20">
  <rect width="259" height="138"/>
</clipPath>
<g id="surface63" clip-path="url(#clip20)">
<path style=" stroke:none;fill-rule:nonzero;fill:rgb(0%,0%,0%);fill-opacity:1;" d="M 135.261719 90.855469 C 128.046875 92.1875 114.460938 91.898438 108.589844 91.699219 C 110.742188 83.976562 121.238281 86.601562 121.238281 86.601562 C 134.226562 84.003906 135.222656 89.390625 135.261719 90.855469 Z M 135.261719 90.855469 "/>
</g>
<mask id="mask20">
  <g filter="url(#alpha)">
<rect x="0" y="0" width="259" height="138" style="fill:rgb(0%,0%,0%);fill-opacity:0.101961;stroke:none;"/>
  </g>
</mask>
<clipPath id="clip21">
  <rect width="259" height="138"/>
</clipPath>
<g id="surface66" clip-path="url(#clip21)">
<path style=" stroke:none;fill-rule:nonzero;fill:rgb(0%,0%,0%);fill-opacity:1;" d="M 130.855469 81.839844 C 130.492188 82.003906 130.117188 82.148438 129.738281 82.273438 C 127.054688 83.199219 124.351562 84.132812 121.527344 84.472656 C 118.703125 84.808594 115.738281 84.511719 113.277344 83.101562 C 113.015625 82.957031 112.769531 82.792969 112.53125 82.617188 C 112.253906 77.136719 111.597656 71.78125 111.597656 71.78125 C 111.597656 71.78125 133.242188 61.566406 130.753906 69.664062 C 129.765625 72.933594 130.097656 77.527344 130.855469 81.839844 Z M 130.855469 81.839844 "/>
</g>
<mask id="mask21">
  <g filter="url(#alpha)">
<rect x="0" y="0" width="259" height="138" style="fill:rgb(0%,0%,0%);fill-opacity:0.101961;stroke:none;"/>
  </g>
</mask>
<clipPath id="clip22">
  <rect width="259" height="138"/>
</clipPath>
<g id="surface69" clip-path="url(#clip22)">
<path style=" stroke:none;fill-rule:nonzero;fill:rgb(0%,0%,0%);fill-opacity:1;" d="M 158.492188 120.628906 L 158.46875 120.984375 L 158.46875 121.007812 L 158.425781 121.582031 L 158.09375 126.191406 L 157.695312 131.746094 L 157.578125 133.3125 L 157.332031 136.660156 L 157.332031 136.703125 L 130.710938 136.953125 L 87.023438 137.425781 L 87.023438 137.632812 L 86.988281 137.632812 L 86.988281 137.355469 L 87.101562 133.777344 L 87.3125 126.789062 L 87.496094 120.863281 L 87.515625 120.273438 C 87.539062 119.550781 87.855469 118.871094 88.390625 118.394531 C 88.929688 117.914062 89.640625 117.675781 90.355469 117.738281 C 91.53125 117.839844 93.054688 117.960938 94.878906 118.089844 L 95.625 118.144531 C 106.15625 118.875 125.621094 119.824219 145.261719 118.644531 C 145.675781 118.621094 146.089844 118.59375 146.503906 118.566406 C 149.550781 118.375 152.59375 118.128906 155.605469 117.816406 C 156.378906 117.738281 157.144531 118.003906 157.703125 118.542969 C 158.257812 119.082031 158.546875 119.839844 158.492188 120.617188 Z M 158.492188 120.628906 "/>
</g>
<mask id="mask22">
  <g filter="url(#alpha)">
<rect x="0" y="0" width="259" height="138" style="fill:rgb(0%,0%,0%);fill-opacity:0.101961;stroke:none;"/>
  </g>
</mask>
<clipPath id="clip23">
  <rect width="259" height="138"/>
</clipPath>
<g id="surface72" clip-path="url(#clip23)">
<path style=" stroke:none;fill-rule:nonzero;fill:rgb(0%,0%,0%);fill-opacity:1;" d="M 158.566406 122.375 L 158.261719 126.191406 L 157.804688 131.882812 L 157.691406 133.308594 L 157.441406 136.5 L 157.425781 136.660156 L 157.425781 136.703125 L 157.390625 137.070312 L 157.417969 136.703125 L 157.34375 136.703125 L 130.722656 136.953125 L 87.023438 137.425781 L 87.023438 137.355469 L 87.144531 133.777344 L 87.394531 126.789062 L 87.550781 122.140625 C 87.566406 121.605469 87.855469 121.113281 88.3125 120.835938 C 88.59375 120.660156 88.925781 120.582031 89.253906 120.609375 C 89.777344 120.652344 90.417969 120.703125 91.167969 120.757812 C 92.382812 120.847656 93.882812 120.953125 95.632812 121.0625 C 98.867188 121.265625 102.921875 121.484375 107.574219 121.664062 C 120.511719 122.164062 137.976562 122.328125 154.566406 120.875 C 155.3125 120.808594 156.085938 120.738281 156.839844 120.664062 C 157.136719 120.636719 157.4375 120.691406 157.703125 120.828125 C 157.78125 120.867188 157.851562 120.914062 157.917969 120.964844 C 158.132812 121.121094 158.304688 121.332031 158.414062 121.578125 C 158.441406 121.625 158.460938 121.675781 158.476562 121.730469 C 158.550781 121.933594 158.582031 122.15625 158.566406 122.375 Z M 158.566406 122.375 "/>
</g>
<mask id="mask23">
  <g filter="url(#alpha)">
<rect x="0" y="0" width="259" height="138" style="fill:rgb(0%,0%,0%);fill-opacity:0.101961;stroke:none;"/>
  </g>
</mask>
<clipPath id="clip24">
  <rect width="259" height="138"/>
</clipPath>
<g id="surface75" clip-path="url(#clip24)">
<path style=" stroke:none;fill-rule:nonzero;fill:rgb(0%,0%,0%);fill-opacity:1;" d="M 74.167969 125.785156 L 74.167969 126.578125 C 74.167969 127.167969 73.828125 127.707031 73.296875 127.957031 L 63.320312 128.152344 C 62.777344 127.902344 62.429688 127.359375 62.429688 126.761719 L 62.429688 126.015625 Z M 74.167969 125.785156 "/>
</g>
<mask id="mask24">
  <g filter="url(#alpha)">
<rect x="0" y="0" width="259" height="138" style="fill:rgb(0%,0%,0%);fill-opacity:0.101961;stroke:none;"/>
  </g>
</mask>
<clipPath id="clip25">
  <rect width="259" height="138"/>
</clipPath>
<g id="surface78" clip-path="url(#clip25)">
<path style=" stroke:none;fill-rule:nonzero;fill:rgb(0%,0%,0%);fill-opacity:1;" d="M 74.292969 128.425781 L 61.292969 128.675781 L 61.292969 126.515625 L 74.292969 126.265625 Z M 74.292969 128.425781 "/>
</g>
<mask id="mask25">
  <g filter="url(#alpha)">
<rect x="0" y="0" width="259" height="138" style="fill:rgb(0%,0%,0%);fill-opacity:0.101961;stroke:none;"/>
  </g>
</mask>
<clipPath id="clip26">
  <rect width="259" height="138"/>
</clipPath>
<g id="surface81" clip-path="url(#clip26)">
<path style=" stroke:none;fill-rule:nonzero;fill:rgb(0%,0%,0%);fill-opacity:1;" d="M 117.828125 46.992188 C 117.585938 46.675781 117.425781 46.304688 117.359375 45.910156 C 117.296875 46.296875 117.335938 46.691406 117.464844 47.058594 C 117.585938 47.046875 117.707031 47.023438 117.828125 46.992188 Z M 117.828125 46.992188 "/>
<path style=" stroke:none;fill-rule:nonzero;fill:rgb(0%,0%,0%);fill-opacity:1;" d="M 114.667969 48.644531 C 114.621094 48.339844 114.589844 48.035156 114.578125 47.722656 C 114.578125 48.03125 114.578125 48.339844 114.578125 48.648438 Z M 114.667969 48.644531 "/>
<path style=" stroke:none;fill-rule:nonzero;fill:rgb(0%,0%,0%);fill-opacity:1;" d="M 134.945312 56.957031 C 134.960938 56.738281 134.988281 56.515625 135.035156 56.296875 C 135.152344 55.917969 135.21875 55.527344 135.234375 55.128906 C 135.230469 55.042969 135.214844 54.953125 135.195312 54.867188 C 135.152344 55.09375 135.085938 55.324219 135.035156 55.550781 C 134.9375 56.011719 134.90625 56.488281 134.945312 56.957031 Z M 134.945312 56.957031 "/>
<path style=" stroke:none;fill-rule:nonzero;fill:rgb(0%,0%,0%);fill-opacity:1;" d="M 129.769531 49.261719 L 130.042969 49.457031 C 130.269531 49.292969 130.484375 49.109375 130.683594 48.90625 C 130.871094 48.640625 130.910156 48.296875 130.777344 48 C 130.75 48.054688 130.71875 48.109375 130.683594 48.15625 C 130.375 48.550781 129.699219 48.769531 129.769531 49.261719 Z M 129.769531 49.261719 "/>
<path style=" stroke:none;fill-rule:nonzero;fill:rgb(0%,0%,0%);fill-opacity:1;" d="M 109.328125 51.65625 C 109.238281 51.839844 109.164062 52.03125 109.109375 52.226562 C 109.5 52.007812 109.917969 51.851562 110.355469 51.753906 Z M 109.328125 51.65625 "/>
<path style=" stroke:none;fill-rule:nonzero;fill:rgb(0%,0%,0%);fill-opacity:1;" d="M 112.757812 48.949219 C 112.59375 48.859375 112.4375 48.753906 112.289062 48.640625 C 112.285156 48.738281 112.292969 48.839844 112.3125 48.933594 C 112.460938 48.929688 112.609375 48.933594 112.757812 48.949219 Z M 112.757812 48.949219 "/>
<path style=" stroke:none;fill-rule:nonzero;fill:rgb(0%,0%,0%);fill-opacity:1;" d="M 137.082031 63.625 C 136.980469 64.832031 136.417969 65.996094 135.964844 67.140625 C 135.050781 69.4375 134.535156 71.875 134.148438 74.316406 C 133.804688 76.507812 133.402344 78.992188 131.539062 80.207031 C 131.003906 80.527344 130.433594 80.777344 129.839844 80.953125 C 127.15625 81.882812 124.453125 82.816406 121.628906 83.152344 C 118.804688 83.492188 115.839844 83.195312 113.378906 81.785156 C 112.664062 81.414062 112.050781 80.871094 111.589844 80.210938 C 110.925781 79.15625 110.914062 77.835938 110.597656 76.628906 C 110.324219 75.734375 109.992188 74.859375 109.601562 74.007812 C 109.050781 72.667969 108.628906 71.269531 108.207031 69.890625 C 107.816406 68.613281 107.429688 67.332031 107.039062 66.046875 C 106.914062 65.664062 106.816406 65.265625 106.757812 64.863281 C 106.660156 65.503906 106.847656 66.171875 107.039062 66.796875 C 107.429688 68.078125 107.816406 69.359375 108.207031 70.640625 C 108.628906 72.027344 109.050781 73.417969 109.601562 74.757812 C 109.992188 75.605469 110.324219 76.480469 110.597656 77.378906 C 110.910156 78.582031 110.921875 79.902344 111.589844 80.957031 C 112.050781 81.621094 112.664062 82.160156 113.378906 82.535156 C 115.839844 83.941406 118.8125 84.238281 121.628906 83.902344 C 124.445312 83.5625 127.144531 82.628906 129.839844 81.703125 C 130.433594 81.523438 131.003906 81.273438 131.539062 80.953125 C 133.390625 79.742188 133.804688 77.253906 134.148438 75.066406 C 134.535156 72.621094 135.050781 70.1875 135.964844 67.890625 C 136.507812 66.523438 137.207031 65.136719 137.089844 63.667969 C 137.089844 63.65625 137.082031 63.640625 137.082031 63.625 Z M 137.082031 63.625 "/>
<path style=" stroke:none;fill-rule:nonzero;fill:rgb(0%,0%,0%);fill-opacity:1;" d="M 107.304688 62.660156 C 107.304688 62.660156 107.304688 62.644531 107.304688 62.632812 C 107.347656 62.195312 107.3125 61.75 107.191406 61.324219 C 107.140625 61.050781 107.109375 60.777344 107.09375 60.5 C 107.066406 61.023438 107.097656 61.554688 107.191406 62.074219 C 107.230469 62.265625 107.273438 62.464844 107.304688 62.660156 Z M 107.304688 62.660156 "/>
<path style=" stroke:none;fill-rule:nonzero;fill:rgb(0%,0%,0%);fill-opacity:1;" d="M 108.0625 56.566406 C 108.253906 56.246094 108.472656 55.941406 108.710938 55.652344 C 108.257812 56.089844 107.417969 55.699219 107.238281 55.09375 C 107.175781 55.339844 107.175781 55.597656 107.238281 55.84375 C 107.363281 56.214844 107.679688 56.492188 108.0625 56.566406 Z M 108.0625 56.566406 "/>
</g>
<mask id="mask26">
  <g filter="url(#alpha)">
<rect x="0" y="0" width="259" height="138" style="fill:rgb(0%,0%,0%);fill-opacity:0.101961;stroke:none;"/>
  </g>
</mask>
<clipPath id="clip27">
  <rect width="259" height="138"/>
</clipPath>
<g id="surface84" clip-path="url(#clip27)">
<path style=" stroke:none;fill-rule:nonzero;fill:rgb(0%,0%,0%);fill-opacity:1;" d="M 170.203125 120.476562 C 170.203125 120.476562 170.992188 123.34375 170.203125 125.835938 C 169.414062 128.324219 170.203125 120.476562 170.203125 120.476562 Z M 170.203125 120.476562 "/>
</g>
<mask id="mask27">
  <g filter="url(#alpha)">
<rect x="0" y="0" width="259" height="138" style="fill:rgb(0%,0%,0%);fill-opacity:0.101961;stroke:none;"/>
  </g>
</mask>
<clipPath id="clip28">
  <rect width="259" height="138"/>
</clipPath>
<g id="surface87" clip-path="url(#clip28)">
<path style=" stroke:none;fill-rule:nonzero;fill:rgb(0%,0%,0%);fill-opacity:1;" d="M 173.5625 123.402344 C 173.5625 123.402344 173.894531 127.039062 173.148438 127.683594 C 172.402344 128.328125 173.5625 123.402344 173.5625 123.402344 Z M 173.5625 123.402344 "/>
</g>
</defs>
<g id="surface1">
<use xlink:href="#surface6" mask="url(#mask0)"/>
<use xlink:href="#surface9" mask="url(#mask1)"/>
<path style=" stroke:none;fill-rule:nonzero;fill:rgb(24.705882%,23.921569%,33.72549%);fill-opacity:1;" d="M 52.644531 66.21875 L 57.375 66.21875 L 57.375 80.582031 L 52.644531 80.582031 Z M 52.644531 66.21875 "/>
<path style=" stroke:none;fill-rule:nonzero;fill:rgb(24.705882%,23.921569%,33.72549%);fill-opacity:1;" d="M 179.863281 65.46875 L 184.589844 65.46875 L 184.589844 80.664062 L 179.863281 80.664062 Z M 179.863281 65.46875 "/>
<path style=" stroke:none;fill-rule:nonzero;fill:rgb(39.607843%,38.039216%,49.019608%);fill-opacity:1;" d="M 214.738281 132.929688 L 214.738281 136.167969 L 176.941406 136.519531 L 176.539062 136.523438 L 162.171875 136.65625 L 161.828125 136.664062 L 157.460938 136.699219 L 157.332031 136.699219 L 130.714844 136.945312 L 87.023438 137.351562 L 86.988281 137.351562 L 75.878906 137.457031 L 75.757812 137.460938 L 26.398438 137.914062 L 26.398438 134.175781 L 38.003906 127.203125 L 61.292969 127.007812 L 61.789062 127.003906 L 61.953125 127.003906 L 62.449219 126.996094 L 73.632812 126.902344 L 74.132812 126.898438 L 74.292969 126.898438 L 74.789062 126.894531 L 78.375 126.867188 L 78.46875 126.863281 L 87.3125 126.789062 L 87.386719 126.789062 L 156.402344 126.207031 L 158.09375 126.191406 L 158.261719 126.191406 L 159.550781 126.179688 L 168.917969 126.101562 L 169.414062 126.09375 L 169.875 126.089844 L 170.113281 126.089844 L 173.027344 126.066406 L 173.605469 126.0625 L 174.378906 126.054688 L 176.804688 126.035156 L 180.652344 126 L 181.152344 125.996094 L 182.015625 125.992188 L 182.179688 125.992188 L 200.765625 125.832031 Z M 214.738281 132.929688 "/>
<use xlink:href="#surface12" mask="url(#mask2)"/>
<path style=" stroke:none;fill-rule:nonzero;fill:rgb(24.705882%,23.921569%,33.72549%);fill-opacity:1;" d="M 73.667969 120.476562 L 73.667969 126.578125 C 73.667969 127.167969 73.332031 127.707031 72.796875 127.957031 C 72.605469 128.054688 72.390625 128.105469 72.175781 128.109375 L 63.492188 128.292969 C 63.261719 128.296875 63.03125 128.25 62.820312 128.152344 C 62.28125 127.902344 61.933594 127.359375 61.933594 126.761719 L 61.933594 120.476562 Z M 73.667969 120.476562 "/>
<use xlink:href="#surface15" mask="url(#mask3)"/>
<path style=" stroke:none;fill-rule:nonzero;fill:rgb(24.705882%,23.921569%,33.72549%);fill-opacity:1;" d="M 74.167969 120.476562 L 74.167969 126.578125 C 74.167969 127.167969 73.828125 127.707031 73.296875 127.957031 C 73.101562 128.054688 72.890625 128.105469 72.675781 128.109375 L 63.992188 128.292969 C 63.757812 128.296875 63.527344 128.25 63.320312 128.152344 C 62.777344 127.902344 62.429688 127.359375 62.429688 126.761719 L 62.429688 120.476562 Z M 74.167969 120.476562 "/>
<path style=" stroke:none;fill-rule:nonzero;fill:rgb(24.705882%,23.921569%,33.72549%);fill-opacity:1;" d="M 169.414062 120.476562 L 181.152344 120.476562 L 181.152344 128.324219 L 169.414062 128.324219 Z M 169.414062 120.476562 "/>
<use xlink:href="#surface18" mask="url(#mask4)"/>
<path style=" stroke:none;fill-rule:nonzero;fill:rgb(24.705882%,23.921569%,33.72549%);fill-opacity:1;" d="M 168.917969 120.476562 L 180.652344 120.476562 L 180.652344 128.324219 L 168.917969 128.324219 Z M 168.917969 120.476562 "/>
<use xlink:href="#surface21" mask="url(#mask5)"/>
<path style=" stroke:none;fill-rule:nonzero;fill:rgb(39.607843%,38.039216%,49.019608%);fill-opacity:1;" d="M 88.488281 26.003906 L 82.808594 66.859375 C 82.734375 67.398438 82.265625 67.796875 81.71875 67.78125 L 36.238281 66.601562 L 35.375 66.578125 C 35.074219 66.570312 34.785156 66.433594 34.589844 66.203125 C 34.390625 65.972656 34.300781 65.667969 34.339844 65.367188 L 40.71875 22.601562 C 40.804688 22.050781 41.292969 21.660156 41.847656 21.695312 L 87.492188 24.789062 C 87.789062 24.808594 88.066406 24.949219 88.257812 25.179688 C 88.445312 25.410156 88.53125 25.710938 88.488281 26.003906 Z M 88.488281 26.003906 "/>
<path style=" stroke:none;fill-rule:nonzero;fill:rgb(42.352941%,38.823529%,100%);fill-opacity:1;" d="M 43.769531 24.699219 L 38.960938 62.394531 L 80.761719 63.722656 L 85.902344 27.355469 Z M 43.769531 24.699219 "/>
<path style=" stroke:none;fill-rule:nonzero;fill:rgb(39.607843%,38.039216%,49.019608%);fill-opacity:1;" d="M 97.015625 24.117188 L 145.285156 24.117188 C 146.015625 24.117188 146.609375 24.710938 146.609375 25.445312 L 146.609375 65.964844 C 146.609375 66.699219 146.015625 67.292969 145.285156 67.292969 L 97.015625 67.292969 C 96.28125 67.292969 95.6875 66.699219 95.6875 65.964844 L 95.6875 25.445312 C 95.6875 24.710938 96.28125 24.117188 97.015625 24.117188 Z M 97.015625 24.117188 "/>
<path style=" stroke:none;fill-rule:nonzero;fill:rgb(42.352941%,38.823529%,100%);fill-opacity:1;" d="M 98.089844 27.023438 L 144.367188 27.023438 L 144.367188 62.976562 L 98.089844 62.976562 Z M 98.089844 27.023438 "/>
<use xlink:href="#surface24" mask="url(#mask6)"/>
<path style=" stroke:none;fill-rule:nonzero;fill:rgb(39.607843%,38.039216%,49.019608%);fill-opacity:1;" d="M 205.921875 64.671875 C 205.933594 64.878906 205.863281 65.085938 205.722656 65.238281 C 205.582031 65.394531 205.382812 65.484375 205.175781 65.488281 L 158.597656 66.453125 C 158.199219 66.460938 157.859375 66.15625 157.820312 65.757812 L 153.816406 24.085938 C 153.796875 23.878906 153.863281 23.671875 154 23.511719 C 154.136719 23.355469 154.335938 23.257812 154.542969 23.25 L 200.765625 20.945312 L 201.261719 20.921875 C 201.675781 20.898438 202.027344 21.207031 202.066406 21.621094 Z M 205.921875 64.671875 "/>
<path style=" stroke:none;fill-rule:nonzero;fill:rgb(42.352941%,38.823529%,100%);fill-opacity:1;" d="M 156.476562 25.695312 L 198.691406 23.621094 L 202.257812 61.480469 L 160.375 62.480469 Z M 156.476562 25.695312 "/>
<use xlink:href="#surface27" mask="url(#mask7)"/>
<use xlink:href="#surface30" mask="url(#mask8)"/>
<use xlink:href="#surface33" mask="url(#mask9)"/>
<use xlink:href="#surface36" mask="url(#mask10)"/>
<path style=" stroke:none;fill-rule:nonzero;fill:rgb(39.607843%,38.039216%,49.019608%);fill-opacity:1;" d="M 94.878906 77.808594 L 94.878906 119.707031 C 94.875 120.238281 94.453125 120.671875 93.921875 120.691406 L 46.238281 121.960938 L 46.226562 121.960938 C 45.6875 121.953125 45.25 121.515625 45.242188 120.976562 L 45.242188 77.808594 C 45.25 77.265625 45.6875 76.832031 46.226562 76.824219 L 93.898438 76.824219 C 94.4375 76.832031 94.871094 77.265625 94.878906 77.808594 Z M 94.878906 77.808594 "/>
<use xlink:href="#surface39" mask="url(#mask11)"/>
<path style=" stroke:none;fill-rule:nonzero;fill:rgb(83.137255%,87.45098%,92.54902%);fill-opacity:1;" d="M 48.417969 79.5 L 92.578125 79.5 L 92.578125 116.429688 L 48.417969 117.425781 Z M 48.417969 79.5 "/>
<use xlink:href="#surface42" mask="url(#mask12)"/>
<use xlink:href="#surface45" mask="url(#mask13)"/>
<path style=" stroke:none;fill-rule:nonzero;fill:rgb(39.607843%,38.039216%,49.019608%);fill-opacity:1;" d="M 196.140625 77.808594 L 196.140625 120.976562 C 196.132812 121.523438 195.691406 121.960938 195.144531 121.960938 L 147.453125 120.691406 C 146.921875 120.671875 146.5 120.238281 146.496094 119.707031 L 146.496094 77.808594 C 146.503906 77.265625 146.9375 76.832031 147.476562 76.824219 L 195.148438 76.824219 C 195.691406 76.824219 196.132812 77.261719 196.140625 77.808594 Z M 196.140625 77.808594 "/>
<use xlink:href="#surface48" mask="url(#mask14)"/>
<path style=" stroke:none;fill-rule:nonzero;fill:rgb(83.137255%,87.45098%,92.54902%);fill-opacity:1;" d="M 192.96875 79.5 L 148.808594 79.5 L 148.808594 116.429688 L 192.96875 117.425781 Z M 192.96875 79.5 "/>
<path style=" stroke:none;fill-rule:nonzero;fill:rgb(39.607843%,38.039216%,49.019608%);fill-opacity:1;" d="M 145.261719 77.808594 L 145.261719 119.707031 C 145.253906 120.238281 144.832031 120.671875 144.304688 120.691406 L 96.621094 121.960938 C 96.078125 121.960938 95.632812 121.523438 95.625 120.976562 L 95.625 77.808594 C 95.632812 77.265625 96.070312 76.832031 96.609375 76.824219 L 144.277344 76.824219 C 144.820312 76.832031 145.253906 77.265625 145.261719 77.808594 Z M 145.261719 77.808594 "/>
<path style=" stroke:none;fill-rule:nonzero;fill:rgb(83.137255%,87.45098%,92.54902%);fill-opacity:1;" d="M 98.796875 79.5 L 142.960938 79.5 L 142.960938 116.429688 L 98.796875 117.425781 Z M 98.796875 79.5 "/>
<use xlink:href="#surface51" mask="url(#mask15)"/>
<path style=" stroke:none;fill-rule:nonzero;fill:rgb(98.431373%,74.509804%,74.509804%);fill-opacity:1;" d="M 134 67.792969 C 134 74.855469 128.28125 80.582031 121.230469 80.582031 C 114.175781 80.582031 108.460938 74.855469 108.460938 67.792969 C 108.460938 60.734375 114.175781 55.007812 121.230469 55.007812 C 128.28125 55.007812 134 60.734375 134 67.792969 Z M 134 67.792969 "/>
<path style=" stroke:none;fill-rule:nonzero;fill:url(#linear0);" d="M 75.734375 137.546875 C 75.734375 137.519531 75.75 137.488281 75.757812 137.460938 C 76.007812 136.566406 76.449219 135.054688 76.78125 133.84375 C 76.824219 133.695312 76.863281 133.546875 76.902344 133.410156 C 77.265625 132.046875 77.980469 128.855469 78.375 126.867188 C 78.511719 126.164062 78.621094 125.621094 78.644531 125.347656 C 78.695312 124.925781 79.445312 123.125 80.292969 121.054688 C 80.886719 119.597656 81.535156 118.011719 82.011719 116.667969 C 82.324219 115.875 82.566406 115.054688 82.742188 114.214844 C 82.777344 114.042969 82.777344 113.859375 82.742188 113.6875 C 82.664062 113.402344 82.625 113.109375 82.621094 112.8125 C 82.5625 111.269531 83.023438 108.828125 83.734375 107.804688 C 84.605469 106.558594 85.230469 101.910156 85.230469 101.910156 C 85.230469 101.910156 86.515625 102.097656 86.722656 101.03125 C 86.742188 100.917969 86.75 100.800781 86.746094 100.683594 C 86.746094 100.589844 86.738281 100.496094 86.722656 100.40625 C 86.503906 98.851562 90.386719 97.199219 92.570312 96.839844 C 92.816406 96.800781 93.066406 96.777344 93.316406 96.773438 C 93.847656 96.714844 94.371094 96.59375 94.871094 96.414062 C 95.105469 96.339844 95.351562 96.257812 95.617188 96.164062 C 96.535156 95.855469 97.628906 95.445312 98.789062 95 C 103.160156 93.300781 108.449219 91.011719 108.449219 91.011719 C 108.488281 90.835938 108.527344 90.667969 108.574219 90.5 C 109.105469 88.371094 110.617188 86.617188 112.644531 85.785156 C 112.644531 85.621094 112.644531 85.453125 112.644531 85.285156 C 112.644531 84.425781 112.605469 83.542969 112.570312 82.660156 C 112.570312 82.488281 112.554688 82.316406 112.542969 82.144531 C 112.542969 82.09375 112.542969 82.042969 112.542969 81.992188 C 112.542969 81.941406 112.542969 81.90625 112.542969 81.863281 C 112.542969 81.6875 112.527344 81.515625 112.515625 81.34375 L 112.472656 81.308594 C 112.089844 81.019531 111.761719 80.664062 111.5 80.261719 C 111.355469 80.027344 111.238281 79.777344 111.148438 79.515625 C 110.835938 78.671875 110.765625 77.726562 110.554688 76.835938 L 110.511719 76.652344 C 110.238281 75.753906 109.90625 74.871094 109.515625 74.015625 C 108.964844 72.667969 108.542969 71.277344 108.125 69.871094 C 107.867188 69.015625 107.609375 68.164062 107.347656 67.308594 L 106.957031 66.003906 C 106.882812 65.753906 106.808594 65.503906 106.75 65.257812 C 106.722656 65.140625 106.699219 65.023438 106.683594 64.90625 C 106.617188 64.523438 106.636719 64.132812 106.746094 63.757812 C 106.839844 63.503906 106.949219 63.253906 107.074219 63.011719 C 107.125 62.902344 107.167969 62.785156 107.199219 62.667969 C 107.207031 62.640625 107.210938 62.613281 107.21875 62.589844 C 107.234375 62.5 107.246094 62.410156 107.246094 62.320312 C 107.234375 61.992188 107.191406 61.667969 107.117188 61.351562 C 107.113281 61.347656 107.113281 61.339844 107.117188 61.335938 C 107.113281 61.316406 107.109375 61.292969 107.101562 61.269531 C 107.058594 61.023438 107.027344 60.773438 107.011719 60.523438 C 106.925781 59.175781 107.226562 57.828125 107.875 56.644531 L 107.925781 56.554688 C 108.0625 56.3125 108.214844 56.082031 108.382812 55.863281 C 108.460938 55.757812 108.539062 55.660156 108.628906 55.558594 C 108.28125 55.890625 107.710938 55.746094 107.386719 55.386719 C 107.332031 55.332031 107.289062 55.269531 107.25 55.199219 C 107.226562 55.164062 107.210938 55.125 107.191406 55.089844 C 107.179688 55.058594 107.171875 55.027344 107.160156 54.992188 C 106.984375 54.382812 107.289062 53.734375 107.6875 53.238281 C 108.078125 52.753906 108.566406 52.355469 109.117188 52.066406 C 109.148438 52.046875 109.179688 52.03125 109.214844 52.015625 C 109.425781 51.90625 109.644531 51.820312 109.871094 51.75 C 110.003906 51.707031 110.140625 51.667969 110.277344 51.640625 L 109.355469 51.554688 L 108.980469 51.519531 C 109.363281 50.011719 110.664062 48.917969 112.214844 48.804688 L 112.484375 48.804688 C 112.617188 48.804688 112.746094 48.816406 112.875 48.835938 C 112.453125 48.648438 112.1875 48.21875 112.214844 47.757812 C 112.867188 48.265625 113.675781 48.535156 114.503906 48.519531 L 114.597656 48.519531 C 114.554688 48.25 114.527344 47.976562 114.511719 47.703125 C 114.488281 47.335938 114.488281 46.964844 114.511719 46.59375 C 114.964844 47.023438 115.582031 47.226562 116.199219 47.15625 L 115.683594 46.433594 C 116.144531 46.800781 116.726562 46.984375 117.3125 46.945312 L 117.433594 46.933594 C 117.535156 46.921875 117.632812 46.902344 117.730469 46.875 L 117.75 46.875 C 117.703125 46.816406 117.664062 46.753906 117.621094 46.6875 L 117.605469 46.660156 C 117.5 46.496094 117.417969 46.320312 117.355469 46.136719 C 117.332031 46.066406 117.3125 45.996094 117.296875 45.921875 C 117.1875 45.46875 117.226562 44.992188 117.410156 44.5625 C 118.210938 45.234375 119.09375 46.15625 120.144531 45.460938 C 121.199219 44.765625 121.230469 43.488281 122.882812 43.621094 C 123.804688 43.707031 124.609375 44.292969 124.972656 45.144531 C 125.453125 44.605469 126.21875 44.429688 126.882812 44.707031 C 127.535156 45.019531 127.921875 45.707031 127.847656 46.425781 C 128.53125 46.253906 129.269531 46.082031 129.925781 46.34375 C 130.582031 46.601562 131.003906 47.441406 130.632812 48 C 130.621094 48.019531 130.609375 48.035156 130.597656 48.050781 C 130.292969 48.445312 129.613281 48.664062 129.6875 49.160156 L 129.792969 49.238281 L 130.113281 49.472656 C 131.382812 50.386719 132.617188 51.351562 133.820312 52.359375 C 134.4375 52.878906 135.09375 53.5 135.136719 54.3125 C 135.144531 54.507812 135.125 54.707031 135.078125 54.902344 C 135.039062 55.09375 134.984375 55.289062 134.941406 55.484375 C 134.835938 55.980469 134.804688 56.488281 134.855469 56.992188 C 134.875 57.136719 134.894531 57.28125 134.921875 57.429688 C 135.304688 59.355469 136.84375 60.945312 136.992188 62.910156 L 136.992188 63.050781 C 137.003906 63.257812 136.996094 63.46875 136.976562 63.679688 C 136.863281 64.875 136.308594 66.023438 135.863281 67.167969 C 135.835938 67.238281 135.808594 67.304688 135.78125 67.375 C 134.917969 69.617188 134.421875 72.007812 134.039062 74.390625 C 133.917969 75.234375 133.75 76.074219 133.542969 76.902344 C 133.316406 77.851562 132.882812 78.738281 132.277344 79.5 C 132.035156 79.789062 131.753906 80.039062 131.441406 80.25 C 131.230469 80.382812 131.011719 80.5 130.78125 80.601562 C 130.78125 80.601562 130.78125 80.601562 130.78125 80.617188 C 130.808594 80.765625 130.832031 80.917969 130.859375 81.070312 C 130.875 81.152344 130.886719 81.230469 130.902344 81.320312 C 130.898438 81.324219 130.898438 81.332031 130.902344 81.335938 C 131.109375 82.511719 131.347656 83.667969 131.601562 84.761719 L 131.726562 85.308594 C 134.863281 86.441406 135.230469 88.761719 135.253906 89.652344 C 135.261719 89.769531 135.261719 89.890625 135.253906 90.007812 C 135.253906 90.007812 139.980469 90.132812 141.847656 91.503906 C 142.195312 91.742188 142.574219 91.933594 142.96875 92.078125 C 143.722656 92.359375 144.492188 92.601562 145.269531 92.796875 C 145.671875 92.902344 146.089844 93.003906 146.515625 93.101562 C 147.261719 93.273438 148.054688 93.441406 148.816406 93.601562 C 150.855469 94.011719 152.773438 94.347656 153.746094 94.597656 C 156.066406 95.183594 161.375 100.28125 161.375 100.28125 C 161.375 100.28125 162 105.421875 162.621094 106.171875 C 163.242188 106.921875 164.363281 109.558594 164.363281 109.558594 L 168.476562 116.882812 L 170.21875 119.964844 L 171.339844 119.964844 C 171.492188 119.964844 171.796875 120.183594 172.136719 120.488281 C 172.433594 120.753906 172.761719 121.082031 173.050781 121.378906 L 173.527344 121.890625 L 173.824219 122.222656 C 173.824219 122.222656 175.636719 122.265625 176.125 123.699219 C 177.597656 123.65625 179.40625 123.753906 180.671875 124.320312 C 180.847656 124.398438 181.011719 124.488281 181.171875 124.589844 C 181.695312 124.894531 182.070312 125.40625 182.199219 126 C 182.222656 126.117188 182.238281 126.238281 182.242188 126.359375 C 182.242188 126.5 182.242188 126.644531 182.242188 126.78125 C 182.152344 128.667969 180.925781 130.238281 179.800781 131.292969 L 179.878906 131.4375 C 179.878906 131.4375 179.84375 131.527344 179.769531 131.683594 C 179.75 131.734375 179.726562 131.785156 179.699219 131.84375 C 179.550781 132.160156 179.316406 132.628906 179.011719 133.179688 C 178.363281 134.371094 177.5625 135.472656 176.628906 136.460938 L 176.558594 136.535156 L 162.191406 136.667969 L 162.148438 136.617188 L 159.363281 133.289062 L 157.976562 131.636719 L 157.933594 131.582031 L 157.894531 131.980469 L 157.761719 133.300781 L 157.4375 136.492188 L 157.421875 136.648438 L 157.421875 136.691406 L 157.382812 137.0625 L 157.410156 136.691406 L 157.339844 136.691406 L 130.714844 136.941406 L 87.023438 137.425781 L 87.023438 137.632812 L 86.988281 137.632812 L 86.988281 137.425781 L 75.855469 137.542969 Z M 75.734375 137.546875 "/>
<path style=" stroke:none;fill-rule:nonzero;fill:rgb(98.431373%,74.509804%,74.509804%);fill-opacity:1;" d="M 134.003906 93.949219 C 134.003906 93.949219 109.246094 96.9375 111.613281 93.949219 C 112.46875 92.867188 112.703125 89.664062 112.65625 86.015625 C 112.640625 84.90625 112.601562 83.757812 112.542969 82.617188 C 112.269531 77.136719 111.613281 71.78125 111.613281 71.78125 C 111.613281 71.78125 133.257812 61.566406 130.769531 69.664062 C 129.773438 72.933594 130.097656 77.527344 130.855469 81.839844 C 131.078125 83.097656 131.332031 84.328125 131.601562 85.5 C 132.257812 88.355469 133.058594 91.175781 134.003906 93.949219 Z M 134.003906 93.949219 "/>
<use xlink:href="#surface54" mask="url(#mask16)"/>
<path style=" stroke:none;fill-rule:nonzero;fill:rgb(42.352941%,38.823529%,100%);fill-opacity:1;" d="M 87.015625 137.632812 L 87.015625 137.425781 L 130.710938 136.949219 L 157.332031 136.699219 L 157.40625 136.699219 L 157.378906 137.070312 L 157.414062 136.699219 L 157.460938 136.699219 L 157.460938 136.65625 L 157.804688 133.308594 L 157.933594 132.039062 L 157.972656 131.644531 L 158.007812 131.3125 L 159.546875 126.179688 L 161.082031 121.050781 L 162.375 116.734375 L 164.351562 110.136719 C 164.351562 110.136719 163.230469 107.523438 162.609375 106.777344 C 161.988281 106.027344 161.367188 100.921875 161.367188 100.921875 C 161.367188 100.921875 156.058594 95.859375 153.734375 95.273438 C 152.761719 95.027344 150.84375 94.695312 148.800781 94.277344 C 148.039062 94.125 147.253906 93.960938 146.5 93.78125 C 146.074219 93.683594 145.65625 93.582031 145.257812 93.480469 C 144.476562 93.285156 143.707031 93.046875 142.953125 92.765625 C 142.558594 92.621094 142.183594 92.429688 141.835938 92.195312 C 140.007812 90.851562 135.425781 90.703125 135.246094 90.703125 C 135.246094 90.695312 135.246094 90.691406 135.246094 90.683594 L 135.246094 90.660156 C 135.253906 90.558594 135.253906 90.453125 135.246094 90.347656 C 135.246094 90.246094 135.246094 90.132812 135.226562 90 C 135.226562 89.960938 135.226562 89.917969 135.207031 89.875 C 135.195312 89.785156 135.179688 89.691406 135.15625 89.589844 C 135.148438 89.546875 135.140625 89.5 135.128906 89.457031 C 135.054688 89.160156 134.953125 88.867188 134.816406 88.589844 C 134.800781 88.550781 134.777344 88.507812 134.757812 88.46875 C 134.636719 88.238281 134.492188 88.019531 134.335938 87.8125 C 134.300781 87.769531 134.265625 87.726562 134.230469 87.683594 C 134.027344 87.441406 133.800781 87.222656 133.554688 87.023438 C 133.484375 86.972656 133.417969 86.917969 133.34375 86.867188 C 133.304688 86.835938 133.261719 86.804688 133.21875 86.777344 L 132.996094 86.632812 L 132.789062 86.515625 C 132.609375 86.414062 132.414062 86.316406 132.207031 86.226562 C 132.140625 86.195312 132.074219 86.167969 132.003906 86.140625 C 131.933594 86.113281 131.824219 86.070312 131.730469 86.035156 L 131.71875 86.035156 L 131.53125 85.960938 C 131.386719 85.914062 131.242188 85.871094 131.09375 85.828125 L 130.859375 85.769531 L 130.613281 85.710938 L 130.363281 85.660156 C 130.113281 85.609375 129.847656 85.566406 129.570312 85.53125 L 129.285156 85.496094 L 128.996094 85.464844 L 128.695312 85.441406 L 128.265625 85.414062 L 127.769531 85.398438 C 125.574219 85.398438 123.386719 85.628906 121.238281 86.09375 C 119.75 85.761719 118.222656 85.621094 116.695312 85.675781 L 116.480469 85.675781 L 116.230469 85.691406 L 116.074219 85.691406 L 115.75 85.71875 C 115.644531 85.71875 115.535156 85.742188 115.429688 85.757812 C 115.320312 85.773438 115.207031 85.785156 115.101562 85.800781 L 114.9375 85.828125 C 114.777344 85.855469 114.613281 85.886719 114.441406 85.921875 C 114.386719 85.929688 114.332031 85.945312 114.277344 85.957031 C 114.058594 86.007812 113.84375 86.0625 113.628906 86.128906 C 113.523438 86.15625 113.414062 86.191406 113.308594 86.230469 C 113.253906 86.246094 113.199219 86.265625 113.148438 86.285156 L 112.988281 86.34375 L 112.832031 86.40625 L 112.644531 86.480469 C 112.550781 86.519531 112.460938 86.5625 112.367188 86.605469 C 112.316406 86.628906 112.261719 86.652344 112.214844 86.679688 C 112.164062 86.707031 112.113281 86.730469 112.0625 86.757812 C 111.5 87.050781 110.980469 87.417969 110.519531 87.847656 L 110.390625 87.972656 L 110.269531 88.097656 C 110.226562 88.140625 110.1875 88.183594 110.144531 88.230469 C 109.984375 88.40625 109.832031 88.59375 109.691406 88.789062 C 109.652344 88.84375 109.617188 88.894531 109.578125 88.949219 C 109.421875 89.183594 109.277344 89.425781 109.152344 89.675781 C 109.117188 89.738281 109.089844 89.800781 109.058594 89.859375 C 108.855469 90.28125 108.6875 90.71875 108.5625 91.167969 C 108.515625 91.332031 108.472656 91.5 108.433594 91.664062 C 108.375 91.914062 103.167969 93.992188 98.796875 95.675781 C 97.636719 96.125 96.542969 96.53125 95.625 96.835938 C 95.359375 96.925781 95.109375 97.007812 94.878906 97.085938 C 94.378906 97.265625 93.855469 97.386719 93.324219 97.445312 C 93.074219 97.449219 92.824219 97.472656 92.578125 97.515625 C 90.570312 97.839844 87.128906 99.257812 86.753906 100.679688 C 86.722656 100.792969 86.714844 100.914062 86.730469 101.027344 C 86.730469 101.027344 86.730469 101.046875 86.730469 101.054688 C 86.976562 102.800781 85.234375 102.550781 85.234375 102.550781 C 85.234375 102.550781 84.613281 107.160156 83.742188 108.40625 C 83.113281 109.300781 82.683594 111.300781 82.628906 112.8125 C 82.597656 113.28125 82.632812 113.753906 82.738281 114.214844 C 82.738281 114.226562 82.738281 114.238281 82.738281 114.25 C 82.835938 114.582031 82.597656 115.492188 82.191406 116.664062 C 81.753906 117.945312 81.109375 119.539062 80.492188 121.042969 C 79.5625 123.316406 78.6875 125.378906 78.632812 125.832031 C 78.609375 126.035156 78.546875 126.394531 78.457031 126.859375 C 78.09375 128.757812 77.285156 132.371094 76.890625 133.835938 C 76.59375 134.925781 76.164062 136.421875 75.867188 137.445312 C 75.867188 137.476562 75.847656 137.507812 75.839844 137.535156 L 86.996094 137.425781 L 86.996094 137.632812 L 87.03125 137.632812 Z M 87.015625 137.632812 "/>
<use xlink:href="#surface57" mask="url(#mask17)"/>
<use xlink:href="#surface60" mask="url(#mask18)"/>
<use xlink:href="#surface63" mask="url(#mask19)"/>
<path style=" stroke:none;fill-rule:nonzero;fill:rgb(42.352941%,38.823529%,100%);fill-opacity:1;" d="M 135.261719 90.359375 C 128.046875 91.6875 114.460938 91.402344 108.589844 91.199219 C 110.742188 83.476562 121.238281 86.101562 121.238281 86.101562 C 134.226562 83.507812 135.222656 88.894531 135.261719 90.359375 Z M 135.261719 90.359375 "/>
<path style=" stroke:none;fill-rule:nonzero;fill:rgb(98.431373%,74.509804%,74.509804%);fill-opacity:1;" d="M 173.5625 124.402344 C 173.5625 124.402344 182.0625 123.09375 182.226562 126.832031 C 182.394531 130.566406 177.894531 133.175781 177.894531 133.175781 Z M 173.5625 124.402344 "/>
<use xlink:href="#surface66" mask="url(#mask20)"/>
<path style=" stroke:none;fill-rule:nonzero;fill:rgb(24.705882%,23.921569%,33.72549%);fill-opacity:1;" d="M 117.726562 47.808594 C 117.007812 48 116.238281 47.839844 115.65625 47.375 L 116.175781 48.09375 C 115.558594 48.164062 114.941406 47.960938 114.488281 47.53125 C 114.441406 48.175781 114.46875 48.824219 114.566406 49.464844 C 113.710938 49.503906 112.867188 49.238281 112.1875 48.714844 C 112.160156 49.175781 112.421875 49.605469 112.84375 49.789062 C 111.066406 49.578125 109.40625 50.71875 108.964844 52.457031 L 110.261719 52.578125 C 109.242188 52.796875 108.324219 53.355469 107.664062 54.164062 C 107.265625 54.660156 106.964844 55.300781 107.136719 55.90625 C 107.3125 56.515625 108.152344 56.902344 108.609375 56.46875 C 107.292969 58.046875 106.738281 60.125 107.09375 62.148438 C 107.210938 62.574219 107.25 63.015625 107.207031 63.457031 C 107.125 63.867188 106.867188 64.226562 106.738281 64.625 C 106.488281 65.351562 106.726562 66.144531 106.945312 66.867188 L 108.113281 70.707031 C 108.535156 72.097656 108.957031 73.484375 109.507812 74.828125 C 109.898438 75.679688 110.234375 76.550781 110.503906 77.445312 C 110.816406 78.652344 110.832031 79.972656 111.5 81.027344 C 111.957031 81.691406 112.570312 82.230469 113.285156 82.601562 C 115.746094 84.011719 118.71875 84.3125 121.535156 83.972656 C 124.351562 83.632812 127.054688 82.699219 129.734375 81.773438 C 130.328125 81.59375 130.902344 81.34375 131.4375 81.027344 C 133.289062 79.8125 133.703125 77.324219 134.046875 75.136719 C 134.433594 72.695312 134.949219 70.257812 135.863281 67.960938 C 136.402344 66.59375 137.105469 65.207031 136.988281 63.742188 C 136.835938 61.796875 135.296875 60.21875 134.917969 58.304688 C 134.789062 57.667969 134.792969 57.007812 134.933594 56.371094 C 135.050781 55.992188 135.117188 55.597656 135.128906 55.199219 C 135.089844 54.398438 134.429688 53.78125 133.8125 53.265625 C 132.476562 52.144531 131.09375 51.085938 129.667969 50.089844 C 129.597656 49.59375 130.273438 49.378906 130.578125 48.984375 C 131.011719 48.429688 130.566406 47.546875 129.90625 47.289062 C 129.25 47.03125 128.515625 47.199219 127.832031 47.371094 C 127.921875 46.652344 127.53125 45.957031 126.867188 45.664062 C 126.203125 45.367188 125.425781 45.546875 124.957031 46.097656 C 124.585938 45.25 123.785156 44.667969 122.863281 44.582031 C 121.210938 44.453125 121.179688 45.71875 120.125 46.410156 C 119.070312 47.105469 118.199219 46.191406 117.386719 45.523438 C 117.085938 46.289062 117.214844 47.164062 117.726562 47.808594 Z M 117.726562 47.808594 "/>
<path style=" stroke:none;fill-rule:nonzero;fill:rgb(42.352941%,38.823529%,100%);fill-opacity:1;" d="M 179.863281 131.875 C 179.863281 131.875 179.644531 132.402344 179.234375 133.167969 C 178.617188 134.34375 177.867188 135.445312 176.996094 136.449219 L 176.929688 136.519531 L 176.527344 136.519531 L 162.160156 136.652344 L 161.816406 136.652344 L 161.773438 136.601562 L 158.988281 133.292969 L 157.9375 132.042969 L 157.894531 131.992188 L 157.804688 131.886719 L 157.757812 131.828125 L 157.691406 131.75 L 155.648438 129.324219 L 156.394531 126.210938 L 157.667969 120.964844 L 157.699219 120.835938 L 157.949219 119.839844 L 158.125 119.09375 L 158.714844 116.65625 L 160.746094 108.273438 L 164.355469 110.144531 L 168.160156 116.867188 L 170.199219 120.480469 L 171.320312 120.480469 C 171.53125 120.480469 172.015625 120.890625 172.503906 121.359375 C 172.679688 121.527344 172.851562 121.703125 173.003906 121.859375 C 173.445312 122.316406 173.796875 122.710938 173.796875 122.710938 C 173.796875 122.710938 175.609375 122.75 176.097656 124.179688 C 176.121094 124.25 176.144531 124.320312 176.160156 124.390625 C 176.320312 124.953125 176.53125 125.5 176.789062 126.027344 C 177.109375 126.726562 177.511719 127.519531 177.921875 128.316406 C 178.679688 129.773438 179.453125 131.160156 179.734375 131.664062 L 179.769531 131.726562 Z M 179.863281 131.875 "/>
<use xlink:href="#surface69" mask="url(#mask21)"/>
<path style=" stroke:none;fill-rule:nonzero;fill:rgb(24.705882%,23.921569%,33.72549%);fill-opacity:1;" d="M 87.015625 137.632812 L 87.015625 137.425781 L 130.710938 136.949219 L 157.332031 136.699219 L 157.40625 136.699219 L 157.40625 136.65625 L 157.652344 133.308594 L 157.761719 131.816406 L 158.167969 126.183594 L 158.488281 121.722656 L 158.488281 121.613281 C 158.503906 121.410156 158.496094 121.203125 158.460938 121 C 158.464844 120.992188 158.464844 120.984375 158.460938 120.972656 C 158.394531 120.554688 158.222656 120.15625 157.964844 119.820312 C 157.40625 119.101562 156.523438 118.726562 155.621094 118.820312 C 152.609375 119.132812 149.566406 119.378906 146.519531 119.570312 C 146.105469 119.597656 145.6875 119.625 145.277344 119.648438 C 125.636719 120.816406 106.171875 119.867188 95.640625 119.148438 L 94.894531 119.09375 C 93.070312 118.964844 91.546875 118.84375 90.371094 118.742188 C 89.035156 118.628906 87.824219 119.546875 87.574219 120.867188 C 87.550781 121 87.535156 121.136719 87.53125 121.277344 L 87.359375 126.796875 L 87.128906 133.789062 L 87.019531 137.363281 L 87.019531 137.644531 Z M 87.015625 137.632812 "/>
<use xlink:href="#surface72" mask="url(#mask22)"/>
<use xlink:href="#surface75" mask="url(#mask23)"/>
<path style=" stroke:none;fill-rule:nonzero;fill:rgb(24.705882%,23.921569%,33.72549%);fill-opacity:1;" d="M 74.292969 128.425781 L 61.292969 128.675781 L 61.292969 126.515625 L 74.292969 126.265625 Z M 74.292969 128.425781 "/>
<use xlink:href="#surface78" mask="url(#mask24)"/>
<path style=" stroke:none;fill-rule:nonzero;fill:rgb(24.705882%,23.921569%,33.72549%);fill-opacity:1;" d="M 74.789062 128.425781 L 61.789062 128.675781 L 61.789062 126.515625 L 74.789062 126.265625 Z M 74.789062 128.425781 "/>
<use xlink:href="#surface81" mask="url(#mask25)"/>
<use xlink:href="#surface84" mask="url(#mask26)"/>
<use xlink:href="#surface87" mask="url(#mask27)"/>
<path style="fill:none;stroke-width:2;stroke-linecap:butt;stroke-linejoin:miter;stroke:rgb(42.352941%,38.823529%,100%);stroke-opacity:1;stroke-miterlimit:10;" d="M 198.986999 342.862772 L 300.600054 341.859149 " transform="matrix(0.248799,0,0,0.249097,0,0)"/>
<path style="fill:none;stroke-width:2;stroke-linecap:butt;stroke-linejoin:miter;stroke:rgb(42.352941%,38.823529%,100%);stroke-opacity:1;stroke-miterlimit:10;" d="M 198.986999 355.329654 L 300.600054 354.341712 " transform="matrix(0.248799,0,0,0.249097,0,0)"/>
<path style="fill:none;stroke-width:2;stroke-linecap:butt;stroke-linejoin:miter;stroke:rgb(42.352941%,38.823529%,100%);stroke-opacity:1;stroke-miterlimit:10;" d="M 198.986999 367.812217 L 300.600054 366.808594 " transform="matrix(0.248799,0,0,0.249097,0,0)"/>
</g>
</svg>
